<svg width="29" height="32" viewBox="0 0 29 32" fill="none" xmlns="http://www.w3.org/2000/svg">
<path d="M0.0879282 16.1296L0.260196 15.4113C1.746 9.21537 7.01092 4.68122 13.3624 4.1297C13.7222 4.09114 14.0891 4.0723 14.4534 4.0723C14.5046 4.0732 14.553 4.0723 14.605 4.0741C18.9234 4.13597 22.7779 6.91511 24.1964 10.9901C24.5409 11.9748 24.7311 13.007 24.7634 14.0598C23.7819 14.1315 22.803 14.084 21.8555 14.0383C21.6438 14.0284 21.432 14.015 21.2221 14.0006L21.1575 13.9961C20.455 13.9468 19.7282 13.8966 18.997 13.9773C18.3474 14.0499 17.7292 14.197 17.1648 14.4131C15.653 14.9431 14.6373 16.3762 14.6373 17.9788C14.6373 18.2137 14.6589 18.4487 14.7028 18.6765L14.7253 18.7939L14.8419 18.7652C16.0989 18.4612 17.4071 18.3742 18.7341 18.515L18.8749 18.5204C19.2168 18.533 19.5694 18.5464 19.8529 18.5769C20.1203 18.6047 20.3904 18.637 20.6631 18.6693C21.101 18.7213 21.5541 18.7742 22.0045 18.8128C22.4647 18.8531 22.873 18.8729 23.248 18.8729C23.4903 18.8729 23.7191 18.8648 23.9398 18.8477C24.4333 18.811 24.8792 18.7347 25.3009 18.6146C25.675 18.5088 26.0456 18.3698 26.4018 18.1994C26.6404 18.0864 26.8755 17.9581 27.1043 17.8164C28.0787 17.1456 28.6834 16.0865 28.7651 14.9073C28.7687 14.7934 28.7714 14.6804 28.774 14.5647V14.5477C28.7749 14.4921 28.7749 14.4356 28.7749 14.38C28.7749 14.1333 28.7687 13.8912 28.757 13.6589C28.3793 5.9995 22.0673 0 14.3879 0C6.70856 0 0 6.45148 0 14.3809C0 14.7243 0.0116639 15.0651 0.0349918 15.3924L0.0879282 16.1296Z" fill="#680093"/>
<path d="M28.688 15.8704L28.5157 16.5887C27.0299 22.7846 21.765 27.3178 15.4135 27.8694C15.0546 27.9079 14.6868 27.9277 14.3225 27.9277C14.2723 27.9277 14.2229 27.9277 14.1709 27.9259C9.85252 27.864 5.99804 25.0848 4.57952 21.0098C4.23499 20.0252 4.04478 18.993 4.01247 17.9402C4.99404 17.8684 5.97291 17.9159 6.92038 17.9617C7.13213 17.9715 7.34387 17.985 7.55383 17.9993L7.61843 18.0038C8.32095 18.0522 9.04771 18.1034 9.77895 18.0227C10.4294 17.95 11.0467 17.8029 11.6111 17.5868C13.1229 17.0568 14.1386 15.6238 14.1386 14.0212C14.1386 13.7862 14.117 13.5522 14.0731 13.3235L14.0506 13.206L13.934 13.2347C13.0673 13.4446 12.171 13.5513 11.271 13.5513C10.8655 13.5513 10.4555 13.5289 10.0427 13.4849L9.90097 13.4795C9.55913 13.467 9.20652 13.4535 8.92299 13.423C8.65472 13.3952 8.38286 13.363 8.11011 13.3307C7.67316 13.2787 7.22096 13.2257 6.77234 13.1872C6.01419 13.1208 5.39959 13.1101 4.83703 13.1522C4.34355 13.189 3.89853 13.2652 3.47593 13.3845C3.10089 13.4903 2.73034 13.6302 2.37504 13.7997C2.13637 13.9127 1.9013 14.0409 1.67251 14.1835C0.695429 14.8534 0.0906992 15.9125 0.00994882 17.0927C0.00635992 17.2066 0.00277101 17.3196 0.000976562 17.4362V17.4532C0.000976562 17.5088 0.000976562 17.5653 0.000976562 17.6209C0.000976562 17.8675 0.00725714 18.1096 0.0189211 18.3419C0.39755 26.0014 6.70864 32.0017 14.3889 32.0017C22.0691 32.0017 28.7768 25.5503 28.7768 17.6209C28.7768 17.2783 28.7651 16.9375 28.7418 16.6093L28.6889 15.8722L28.688 15.8704Z" fill="#680093"/>
</svg>
